# xmcd CD database file
#
# Track frame offsets:
#	150
#	17263
#	35447
#	51720
#	66653
#	81869
#	99949
#	117329
#	132426
#	151100
#	165383
#	181259
#	197983
#	213310
#	231007
#	245172
#	263414
#	279315
#	294042
#	309503
#
# Disc length: 4391 seconds
#
# Revision: 1
# Processed by: cddbd v1.5PL3 Copyright (c) Steve Scherf et al.
# Submitted via: CDex 1.50
#
DISCID=12112514
DTITLE=Divers - Saga Relaxation - Cd 4
DYEAR=1900
DGENRE=New Age
TTITLE0=Cabega - Peina
TTITLE1=Lexo - First Session
TTITLE2=Lexo - Ocalia
TTITLE3=Putzola - The New Voice
TTITLE4=Wakoo - Emisphere
TTITLE5=Seven Miles - Midnight Jam Session
TTITLE6=Wakoo - Emisphere
TTITLE7=Seven Miles - Lila's Story
TTITLE8=Seven Miles - Nueva Bossa
TTITLE9=Fabrice - Clément Anik Song
TTITLE10=Seven Miles - Phissoyo
TTITLE11=Rundi V Bakshi - Indian Wolf
TTITLE12=Mondo Wells - Everything At The Right Time
TTITLE13=Alma Gipsy - Lounge
TTITLE14=Jack Clouseau and Alma Ritano - India Ritana
TTITLE15=Seven Miles - Boduc
TTITLE16=Seven Miles - Océan
TTITLE17=Seven Miles - On The Way To Heaven
TTITLE18=Seven Miles - Eleven Farenheit
TTITLE19=Putzola - Big Delirium
EXTD=
EXTT0=
EXTT1=
EXTT2=
EXTT3=
EXTT4=
EXTT5=
EXTT6=
EXTT7=
EXTT8=
EXTT9=
EXTT10=
EXTT11=
EXTT12=
EXTT13=
EXTT14=
EXTT15=
EXTT16=
EXTT17=
EXTT18=
EXTT19=
PLAYORDER=
